<svg width="154" height="155" viewBox="0 0 154 155" xmlns="http://www.w3.org/2000/svg" xmlns:xlink="http://www.w3.org/1999/xlink"><title>buttonSingle</title><defs><ellipse id="b" cx="69" cy="69.5" rx="69" ry="69.5"/><filter x="-50%" y="-50%" width="200%" height="200%" filterUnits="objectBoundingBox" id="a"><feMorphology radius="2.112" operator="dilate" in="SourceAlpha" result="shadowSpreadOuter1"/><feOffset dx="2" dy="2" in="shadowSpreadOuter1" result="shadowOffsetOuter1"/><feGaussianBlur stdDeviation="3.5" in="shadowOffsetOuter1" result="shadowBlurOuter1"/><feComposite in="shadowBlurOuter1" in2="SourceAlpha" operator="out" result="shadowBlurOuter1"/><feColorMatrix values="0 0 0 0 0 0 0 0 0 0 0 0 0 0 0 0 0 0 0.239130435 0" in="shadowBlurOuter1"/></filter><ellipse id="c" cx="67.062" cy="66.552" rx="66.59" ry="66.552"/></defs><g fill="none" fill-rule="evenodd"><g transform="translate(6 6)"><use fill="#000" filter="url(#a)" xlink:href="#b"/><use stroke="#FFF" stroke-width="4.224" fill="#2CABE2" xlink:href="#b"/></g><g transform="translate(8 9)"><mask id="d" fill="#fff"><use xlink:href="#c"/></mask><path d="M67.1 111.324c6.584 0 11.92-5.355 11.92-11.964 0-6.608-5.336-11.963-11.92-11.963-6.583 0-11.918 5.355-11.918 11.963 0 6.609 5.335 11.964 11.919 11.964zm5.45 1.14H62.446c-8.4 0-15.21 6.836-15.21 15.268v12.647l.794.228c7.946 2.507 14.983 3.304 20.659 3.304 11.124 0 17.594-3.19 18.048-3.418l.795-.456.113-12.305c.114-8.432-6.697-15.268-15.097-15.268z" fill="#000" opacity=".1" mask="url(#d)"/></g><path d="M55.734 29.994c-2.24 0-3.746 1.106-3.746 2.862 0 3.428 5.156 2.364 5.156 4.189 0 .594-.54.926-1.438.926-1.023 0-2.433-.567-3.428-1.452l-.871 1.784c1.092.926 2.682 1.534 4.272 1.534 2.142 0 3.787-1.023 3.787-2.917.014-3.483-5.142-2.488-5.142-4.271 0-.526.497-.788 1.23-.788.774 0 1.99.387 3.014.995l.843-1.81c-.968-.637-2.322-1.052-3.677-1.052zm6.29-.967c-.678 0-1.148.497-1.148 1.189 0 .69.47 1.188 1.148 1.188.677 0 1.147-.497 1.147-1.188 0-.692-.47-1.19-1.147-1.19zm1.064 10.741v-7.437H60.96v7.437h2.13zm6.746-7.52c-1.16.014-2.046.456-2.571 1.382v-1.3h-2.129v7.438h2.129v-3.663c0-1.092.636-1.894 1.7-1.908.913 0 1.466.58 1.466 1.52v4.051h2.129v-4.673c0-1.741-1.065-2.847-2.724-2.847zm11.53.083h-2.116v1.009c-.511-.691-1.285-1.092-2.294-1.078-1.894 0-3.194 1.423-3.194 3.525 0 2.156 1.327 3.594 3.249 3.594.981 0 1.742-.387 2.24-1.078v.843c0 1.01-.775 1.659-1.991 1.659a3.933 3.933 0 0 1-2.309-.747l-.788 1.493c.857.58 1.977.982 3.235.982 2.378 0 3.968-1.341 3.968-3.456V32.33zm-3.857 5.433c-1.051 0-1.742-.788-1.756-1.922.014-1.134.719-1.935 1.756-1.935 1.036 0 1.741.788 1.741 1.935 0 1.134-.705 1.922-1.741 1.922zm8.004 2.004V29.511h-2.13v10.257h2.13zm5.322-7.506c-2.267 0-3.83 1.52-3.83 3.815 0 2.253 1.508 3.774 3.885 3.774 1.341 0 2.433-.484 3.18-1.313l-1.12-1.134a2.637 2.637 0 0 1-1.88.788c-.954 0-1.673-.553-1.922-1.493h5.336c.18-2.71-1.036-4.437-3.649-4.437zm-1.728 3.18c.166-.982.802-1.618 1.742-1.618.981 0 1.617.636 1.645 1.617h-3.387zm-22.188 10.01h-2.184v5.626c0 1.396-.857 2.24-2.156 2.24-1.3 0-2.212-.844-2.212-2.24V45.45H58.18v5.627c0 2.557 1.714 4.147 4.396 4.147 2.668 0 4.34-1.59 4.34-4.147V45.45zm4.424 2.142c-1.617 0-2.93.788-2.93 2.322 0 2.613 3.856 1.977 3.856 3.166 0 .4-.4.58-.94.58-.815 0-1.81-.331-2.585-.926l-.691 1.438c.843.678 2.018 1.037 3.221 1.037 1.687 0 3.027-.802 3.027-2.322.014-2.627-3.912-2.06-3.912-3.18 0-.387.36-.553.857-.553.622 0 1.452.263 2.267.719l.733-1.452a5.547 5.547 0 0 0-2.903-.83zm7.576.028c-2.267 0-3.83 1.52-3.83 3.815 0 2.253 1.507 3.774 3.885 3.774 1.34 0 2.433-.484 3.18-1.313l-1.12-1.134a2.637 2.637 0 0 1-1.88.788c-.954 0-1.673-.553-1.922-1.493h5.336c.18-2.71-1.037-4.437-3.65-4.437zm-1.728 3.18c.166-.982.801-1.618 1.741-1.618.982 0 1.618.636 1.646 1.617h-3.387zm8.916-3.111h-2.129v7.437h2.13v-3.58c0-1.258.94-2.074 2.46-1.936v-2.004c-1.106.014-1.95.511-2.46 1.424V47.69zM23.023 79.587l5.547-10.731h-3.94l-5.884 11.146v2.903h8.632V87h3.81v-4.095h2.514v-3.318h-2.514v-3.992h-3.81v3.992h-4.355zm12.964 3.525c-1.14 0-1.995.83-1.995 2.048 0 1.192.855 2.073 1.995 2.073 1.167 0 1.996-.881 1.996-2.073 0-1.219-.83-2.048-1.996-2.048zM46.93 68.726c-5.132 0-7.932 3.266-7.932 9.176 0 5.936 2.8 9.228 7.932 9.228 5.08 0 7.906-3.292 7.906-9.228 0-5.91-2.826-9.176-7.906-9.176zm0 3.137c2.54 0 3.706 1.788 3.706 6.04 0 4.276-1.166 6.09-3.706 6.09-2.566 0-3.733-1.814-3.733-6.09 0-4.252 1.167-6.04 3.733-6.04zm16.93-3.137c-5.132 0-7.932 3.266-7.932 9.176 0 5.936 2.8 9.228 7.932 9.228 5.08 0 7.906-3.292 7.906-9.228 0-5.91-2.826-9.176-7.906-9.176zm0 3.137c2.54 0 3.707 1.788 3.707 6.04 0 4.276-1.167 6.09-3.707 6.09-2.566 0-3.732-1.814-3.732-6.09 0-4.252 1.166-6.04 3.732-6.04zm25.67 11.586c-2.022 0-3.759-1.037-4.718-2.644h6.013v-1.918h-6.739a6.727 6.727 0 0 1-.078-1.037c0-.363.026-.726.104-1.062h6.713v-1.919h-5.987c.959-1.58 2.696-2.592 4.691-2.592 1.711 0 3.5.934 4.744 2.36l2.384-2.904c-1.788-1.84-4.51-3.007-7.153-3.007-4.381 0-7.906 2.489-9.176 6.143H77.58v1.919h2.307c-.026.362-.052.725-.052 1.114 0 .337.026.674.052.985H77.58v1.918h2.696c1.192 3.759 4.692 6.376 9.046 6.376 2.67 0 5.443-1.27 7.335-3.24l-2.384-2.617c-1.322 1.296-3.11 2.125-4.744 2.125zm13.979 6.454l8.346-23.95h-3.37l-8.32 23.95h3.344zm17.245-6.143v-4.147h4.407v-2.851h-4.407V74.74c0-1.659.804-2.488 2.281-2.488 1.14 0 2.281.622 3.396 1.788l1.555-3.11c-1.4-1.452-3.318-2.255-5.391-2.255-3.785 0-5.962 2.177-5.962 5.987v2.1h-2.022v2.85h2.022v4.148h-2.022V87h13.012v-3.24h-6.869z" fill="#FFF"/></g></svg>