<svg width="155" height="155" viewBox="0 0 155 155" xmlns="http://www.w3.org/2000/svg" xmlns:xlink="http://www.w3.org/1999/xlink"><title>buttonFamily</title><defs><circle id="b" cx="69.5" cy="69.5" r="69.5"/><filter x="-50%" y="-50%" width="200%" height="200%" filterUnits="objectBoundingBox" id="a"><feMorphology radius="2.112" operator="dilate" in="SourceAlpha" result="shadowSpreadOuter1"/><feOffset dx="2" dy="2" in="shadowSpreadOuter1" result="shadowOffsetOuter1"/><feGaussianBlur stdDeviation="3.5" in="shadowOffsetOuter1" result="shadowBlurOuter1"/><feComposite in="shadowBlurOuter1" in2="SourceAlpha" operator="out" result="shadowBlurOuter1"/><feColorMatrix values="0 0 0 0 0 0 0 0 0 0 0 0 0 0 0 0 0 0 0.239130435 0" in="shadowBlurOuter1"/></filter><circle id="c" cx="66.5" cy="66.5" r="66.5"/></defs><g fill="none" fill-rule="evenodd"><g transform="translate(6.168 6)"><use fill="#000" filter="url(#a)" xlink:href="#b"/><use stroke="#FFF" stroke-width="4.224" fill="#2CABE2" xlink:href="#b"/></g><g transform="translate(6.349 9.21)"><mask id="d" fill="#fff"><use xlink:href="#c"/></mask><path d="M49.984 81.944c0-6.062 4.859-10.97 10.861-10.97 6.003 0 10.862 4.908 10.862 10.97s-4.86 10.97-10.862 10.97c-6.002-.097-10.861-5.004-10.861-10.97zm16.006 18.378c.096-2.405.953-4.618 2.192-6.446a14.404 14.404 0 0 0-2.859-.29h-9.146c-.953 0-1.906.097-2.859.29 1.43 1.924 2.192 4.33 2.192 6.928 1.715-.963 3.62-1.444 5.716-1.444 1.81-.096 3.335.289 4.764.962zm1.906.963c3.144 2.02 5.335 5.388 5.716 9.237 1.239.577 2.668.962 4.193.962 5.526 0 10.004-4.522 10.004-10.103 0-5.581-4.478-10.103-10.004-10.103-5.431.096-9.91 4.522-9.91 10.007zm-6.574 20.591c5.526 0 10.004-4.522 10.004-10.103 0-5.58-4.478-10.103-10.004-10.103s-10.004 4.522-10.004 10.103c0 5.58 4.478 10.103 10.004 10.103zm4.192.674h-8.48c-7.05 0-12.767 5.773-12.767 12.894v10.681l.667.192c6.67 2.117 12.577 2.79 17.34 2.79 9.338 0 14.768-2.694 15.15-2.886l.666-.385.096-10.392c.095-7.12-5.622-12.894-12.672-12.894zm16.483-10.392h-8.385a12.538 12.538 0 0 1-3.81 8.66c6.288 1.924 10.86 7.698 10.86 14.626v3.175c8.29-.289 13.054-2.694 13.34-2.79l.667-.385h.095v-10.392c0-7.12-5.717-12.894-12.767-12.894zm2.286-21.073c3.145 2.02 5.336 5.389 5.717 9.237 1.239.578 2.668.963 4.192.963 5.526 0 10.004-4.523 10.004-10.104 0-5.58-4.478-10.103-10.004-10.103-5.43.096-9.813 4.522-9.909 10.007zm14.197 10.97h-8.385a12.538 12.538 0 0 1-3.81 8.66c6.288 1.924 10.86 7.697 10.86 14.625v3.176c8.29-.289 13.054-2.694 13.34-2.79l.667-.386h.095v-10.392c0-7.12-5.717-12.894-12.767-12.894zm-54.69 9.43c1.906 0 3.717-.578 5.336-1.54a12.536 12.536 0 0 1 4.669-7.987v-.577c0-5.581-4.478-10.103-10.004-10.103S33.787 95.8 33.787 101.38s4.573 10.103 10.004 10.103zm8.957 9.333c-2.287-2.213-3.716-5.196-3.811-8.564h-9.433c-7.05 0-12.767 5.773-12.767 12.894v10.681l.667.192c5.43 1.732 10.195 2.502 14.387 2.694v-3.175c.19-7.024 4.764-12.894 10.957-14.722z" fill="#000" opacity=".1" mask="url(#d)"/></g><path d="M65.753 100.03h-1.85v4.766c0 1.183-.727 1.897-1.828 1.897-1.1 0-1.874-.714-1.874-1.897v-4.767h-1.85v4.767c0 2.167 1.452 3.513 3.724 3.513 2.26 0 3.678-1.346 3.678-3.513v-4.767zm5.47 1.838c-.856 0-1.547.351-1.992.984v-.926h-1.803v8.574h1.803v-3.186c.457.632 1.148.984 2.027.984 1.768 0 2.928-1.277 2.928-3.186 0-1.944-1.195-3.244-2.964-3.244zm-.422 4.93c-.925 0-1.57-.702-1.57-1.744 0-1.02.645-1.734 1.57-1.734s1.558.726 1.558 1.734c0 1.03-.633 1.745-1.558 1.745zm10.927-.245c-.328.152-.609.234-.843.234-.387.012-.61-.2-.61-.726v-2.6h1.71v-1.253h-1.71v-1.734h-1.791v1.734h-.879v1.241h.879v2.916c0 1.3.855 1.944 1.98 1.944.585 0 1.17-.163 1.639-.433l-.375-1.323zm4.263-4.685c-2.026 0-3.384 1.276-3.384 3.209 0 1.92 1.358 3.22 3.384 3.22 2.015 0 3.373-1.3 3.373-3.22 0-1.933-1.358-3.21-3.373-3.21zm0 1.499c.926 0 1.57.703 1.57 1.733 0 1.031-.644 1.734-1.57 1.734-.937 0-1.57-.703-1.57-1.734 0-1.03.633-1.733 1.57-1.733zm-26.72 9.728v-1.546h-5.248l-.011 4.544a49.562 49.562 0 0 1 2.213-.058c.89 0 1.417.398 1.417 1.1 0 .75-.527 1.195-1.417 1.195-.738 0-1.499-.34-2.131-.972l-.738 1.464c.831.598 2.038.996 3.08.996 1.933 0 3.186-1.101 3.186-2.811 0-1.464-1.195-2.483-3.045-2.483l-.855.012v-1.44h3.548zm10.446.351h-1.791v3.116c0 .913-.528 1.593-1.394 1.604-.726 0-1.183-.48-1.183-1.276v-3.444h-1.804v3.96c0 1.487.879 2.412 2.272 2.412.949 0 1.675-.387 2.109-1.183v1.112h1.791v-6.3zm3.877-.082c-1.37 0-2.483.668-2.483 1.968 0 2.214 3.268 1.675 3.268 2.682 0 .34-.34.492-.797.492-.69 0-1.534-.281-2.19-.785l-.585 1.218c.714.574 1.71.879 2.729.879 1.428 0 2.564-.68 2.564-1.968.012-2.225-3.314-1.745-3.314-2.694 0-.328.305-.468.726-.468.527 0 1.23.222 1.92.609l.622-1.23a4.7 4.7 0 0 0-2.46-.703zm6.418.024c-1.92 0-3.244 1.288-3.244 3.232 0 1.91 1.277 3.198 3.291 3.198 1.136 0 2.061-.41 2.694-1.113l-.949-.96a2.234 2.234 0 0 1-1.593.667c-.808 0-1.417-.468-1.628-1.265h4.521c.153-2.295-.878-3.76-3.092-3.76zm-1.464 2.694c.14-.832.68-1.37 1.476-1.37.832 0 1.37.538 1.394 1.37h-2.87zm7.555-2.636h-1.804v6.301h1.804v-3.033c0-1.066.796-1.757 2.084-1.64v-1.698c-.937.012-1.651.434-2.084 1.206v-1.136zm5.2-.082c-1.37 0-2.483.668-2.483 1.968 0 2.214 3.267 1.675 3.267 2.682 0 .34-.34.492-.796.492-.691 0-1.534-.281-2.19-.785l-.586 1.218c.715.574 1.71.879 2.73.879 1.428 0 2.564-.68 2.564-1.968.012-2.225-3.314-1.745-3.314-2.694 0-.328.304-.468.726-.468.527 0 1.23.222 1.92.609l.621-1.23a4.7 4.7 0 0 0-2.46-.703zM25.549 86.138V68.666h-7.238v3.32h3.294v14.152h3.944zm14.53-14.177v-3.295h-11.18l-.025 9.685c1.123-.075 3.769-.125 4.717-.125 1.897 0 3.02.849 3.02 2.346 0 1.598-1.123 2.546-3.02 2.546-1.572 0-3.195-.724-4.542-2.071l-1.573 3.12c1.772 1.273 4.343 2.121 6.565 2.121 4.118 0 6.789-2.346 6.789-5.99 0-3.12-2.546-5.292-6.49-5.292l-1.822.025v-3.07h7.563zm3.425 10.433c-1.099 0-1.922.8-1.922 1.972 0 1.148.823 1.997 1.922 1.997 1.123 0 1.921-.849 1.921-1.997 0-1.173-.798-1.972-1.921-1.972zM54.04 68.542c-4.942 0-7.638 3.145-7.638 8.835 0 5.716 2.696 8.886 7.638 8.886 4.892 0 7.613-3.17 7.613-8.886 0-5.69-2.721-8.835-7.613-8.835zm0 3.02c2.446 0 3.57 1.722 3.57 5.815 0 4.119-1.124 5.866-3.57 5.866-2.471 0-3.594-1.747-3.594-5.866 0-4.093 1.123-5.815 3.594-5.815zm16.303-3.02c-4.942 0-7.638 3.145-7.638 8.835 0 5.716 2.696 8.886 7.638 8.886 4.892 0 7.613-3.17 7.613-8.886 0-5.69-2.721-8.835-7.613-8.835zm0 3.02c2.446 0 3.57 1.722 3.57 5.815 0 4.119-1.124 5.866-3.57 5.866-2.471 0-3.594-1.747-3.594-5.866 0-4.093 1.123-5.815 3.594-5.815zm24.719 11.157c-1.947 0-3.62-.998-4.543-2.546h5.79v-1.847H89.82a6.478 6.478 0 0 1-.075-.998c0-.35.025-.7.1-1.024h6.465v-1.847h-5.766c.923-1.522 2.596-2.496 4.518-2.496 1.647 0 3.37.899 4.567 2.272l2.297-2.796c-1.723-1.772-4.343-2.895-6.89-2.895-4.218 0-7.612 2.396-8.835 5.915h-2.646v1.847h2.221c-.025.35-.05.7-.05 1.073 0 .325.025.65.05.949h-2.221v1.847h2.596c1.148 3.62 4.518 6.14 8.71 6.14 2.572 0 5.242-1.223 7.065-3.12l-2.297-2.52c-1.273 1.247-2.995 2.046-4.567 2.046zm13.461 6.215l8.037-23.063h-3.244l-8.013 23.063h3.22zm16.607-5.916v-3.993h4.243v-2.746h-4.243v-1.947c0-1.597.774-2.396 2.197-2.396 1.098 0 2.196.6 3.27 1.722l1.497-2.995c-1.348-1.398-3.195-2.171-5.192-2.171-3.644 0-5.74 2.096-5.74 5.765v2.022h-1.947v2.746h1.946v3.993h-1.946v3.12h12.53v-3.12h-6.615zM59.625 31.792l.014-1.81h-6.953v9.676h2.184v-3.663h4.368V34.17H54.87v-2.378h4.755zm5.558 7.866h2.087l-.014-4.852c-.014-1.673-1.161-2.668-3.152-2.668-1.3 0-2.253.304-3.359.857l.664 1.465c.774-.428 1.548-.65 2.212-.65 1.022 0 1.548.457 1.548 1.245v.138h-2.046c-1.825.014-2.834.843-2.834 2.24 0 1.354.968 2.322 2.557 2.322 1.037 0 1.839-.346 2.337-.968v.871zm-1.742-1.424c-.72 0-1.161-.373-1.161-.94 0-.594.4-.843 1.216-.843h1.673v.664c-.125.636-.83 1.12-1.728 1.12zm15.51-6.096c-1.258.014-2.198.567-2.682 1.714-.359-1.078-1.258-1.714-2.516-1.714-1.12.014-1.99.456-2.515 1.369V32.22h-2.13v7.437h2.13V35.98c0-1.078.622-1.88 1.658-1.894.871 0 1.424.567 1.424 1.52v4.051h2.115V35.98c0-1.078.622-1.88 1.645-1.894.885 0 1.438.567 1.438 1.52v4.051h2.115v-4.672c0-1.742-1.037-2.848-2.682-2.848zm5.585-3.221c-.677 0-1.147.498-1.147 1.189 0 .691.47 1.189 1.147 1.189.678 0 1.148-.498 1.148-1.19 0-.69-.47-1.188-1.148-1.188zm1.065 10.741v-7.437h-2.13v7.437h2.13zm4.244 0V29.401h-2.13v10.257h2.13zm9-7.437h-2.13l-1.755 5.115-1.95-5.115h-2.198l3.083 7.285-.207.415c-.208.442-.54.663-.982.663-.345 0-.636-.124-.967-.4l-.899 1.534c.608.498 1.23.719 2.018.719 1.286 0 2.198-.636 2.724-1.95l3.262-8.266zM51.2 47.51c-1.01 0-1.825.416-2.35 1.162V47.58h-2.13V57.7h2.13v-3.76c.539.746 1.354 1.161 2.391 1.161 2.088 0 3.456-1.507 3.456-3.76 0-2.295-1.41-3.83-3.497-3.83zm-.498 5.82c-1.092 0-1.852-.829-1.852-2.06 0-1.202.76-2.045 1.852-2.045s1.839.857 1.839 2.046c0 1.216-.747 2.06-1.839 2.06zm9.718 1.687h2.088l-.014-4.852c-.014-1.673-1.161-2.668-3.152-2.668-1.3 0-2.253.304-3.36.857l.664 1.465c.774-.428 1.549-.65 2.212-.65 1.023 0 1.548.457 1.548 1.245v.138H58.36c-1.824.014-2.833.843-2.833 2.24 0 1.354.967 2.322 2.557 2.322 1.037 0 1.839-.346 2.336-.968v.871zm-1.742-1.424c-.718 0-1.16-.373-1.16-.94 0-.594.4-.843 1.216-.843h1.672v.664c-.124.636-.829 1.12-1.728 1.12zm8.848-6.082c-2.281 0-3.816 1.534-3.816 3.815 0 2.254 1.535 3.774 3.788 3.774 1.52 0 2.682-.608 3.304-1.645l-1.465-.995c-.374.58-.968.87-1.728.87-1.037 0-1.77-.815-1.77-2.018 0-1.188.733-1.99 1.77-1.99a2.05 2.05 0 0 1 1.7.788l1.438-1.037c-.664-.995-1.797-1.562-3.221-1.562zm7.755 4.479l1.797 3.027h2.516l-2.848-4.562 2.724-2.861h-2.42L74.328 50.4v-5.64h-2.129v10.257h2.13V53l.953-1.01zm9.387 3.027h2.087l-.014-4.852c-.014-1.673-1.161-2.668-3.152-2.668-1.3 0-2.253.304-3.359.857l.664 1.465c.774-.428 1.548-.65 2.211-.65 1.023 0 1.549.457 1.549 1.245v.138h-2.046c-1.825.014-2.834.843-2.834 2.24 0 1.354.968 2.322 2.557 2.322 1.037 0 1.839-.346 2.337-.968v.871zm-1.742-1.424c-.72 0-1.161-.373-1.161-.94 0-.594.4-.843 1.216-.843h1.673v.664c-.125.636-.83 1.12-1.728 1.12zm12.635-6.013h-2.115v1.01c-.512-.692-1.286-1.093-2.295-1.08-1.894 0-3.193 1.425-3.193 3.526 0 2.156 1.327 3.594 3.248 3.594.982 0 1.742-.387 2.24-1.078v.843c0 1.01-.774 1.659-1.99 1.659a3.933 3.933 0 0 1-2.31-.746l-.787 1.493c.857.58 1.976.981 3.234.981 2.378 0 3.968-1.34 3.968-3.456V47.58zm-3.857 5.433c-1.05 0-1.742-.788-1.756-1.922.014-1.133.72-1.935 1.756-1.935 1.037 0 1.742.788 1.742 1.935 0 1.134-.705 1.922-1.742 1.922zm9-5.502c-2.268 0-3.83 1.52-3.83 3.815 0 2.254 1.507 3.774 3.885 3.774 1.34 0 2.433-.484 3.18-1.313l-1.12-1.134a2.637 2.637 0 0 1-1.88.788c-.954 0-1.673-.553-1.922-1.493h5.336c.18-2.71-1.037-4.437-3.65-4.437zm-1.729 3.18c.166-.982.802-1.618 1.742-1.618.982 0 1.618.636 1.645 1.617h-3.387z" fill="#FFF"/></g></svg>